<mxfile host="app.diagrams.net" modified="2024-02-27T03:42:50.330Z" agent="Mozilla/5.0 (Macintosh; Intel Mac OS X 10_15_7) AppleWebKit/537.36 (KHTML, like Gecko) Chrome/121.0.0.0 Safari/537.36" version="23.1.7" etag="a2Hv7P8q1TVFd9hSTXWG" type="github">
  <diagram name="第 1 页" id="YjZi_wuVKQE1SthfTk1a">
    <mxGraphModel>
      <root>
        <mxCell id="0" />
        <mxCell id="1" parent="0" />
      </root>
    </mxGraphModel>
  </diagram>
</mxfile>
